<svg width="128" height="128" viewBox="0 0 128 128" fill="none" xmlns="http://www.w3.org/2000/svg">
<rect width="128" height="128" fill="white"/>
<path fill-rule="evenodd" clip-rule="evenodd" d="M37 42.6667C37 27.9317 49.0808 16 64 16C78.9192 16 91 27.9317 91 42.6667V85.3333C91 100.068 78.9192 112 64 112C49.0808 112 37 100.068 37 85.3333V42.6667ZM64 26.6667C55.0455 26.6667 47.8 33.8227 47.8 42.6667V85.3333C47.8 94.1773 55.0455 101.333 64 101.333C72.9545 101.333 80.2 94.1773 80.2 85.3333V42.6667C80.2 33.8227 72.9545 26.6667 64 26.6667Z" fill="black"/>
</svg>
